<svg xmlns="http://www.w3.org/2000/svg" viewBox="0 0 64 64">
  <rect width="64" height="64" rx="32" fill="#0B1220"/>
  <g fill="#fff" transform="translate(32 32)">
    <path d="M-3-27h6v18h-6z"/>
    <path d="M-3 9h6v18h-6z"/>
    <path d="M-27-3h18v6h-18z"/>
    <path d="M9-3h18v6H9z"/>
    <path d="M-20.5-24.5l14.4 10.5-3.5 4.9-14.4-10.5z"/>
    <path d="M6.1 14l14.4 10.5 3.5-4.9L9.6 9.1z"/>
    <path d="M20.5-24.5L6.1-14l3.5 4.9L24-19.6z"/>
    <path d="M-6.1 14l-14.4 10.5-3.5-4.9 14.4-10.5z"/>
    <circle cx="0" cy="0" r="8"/>
    <circle cx="-17" cy="-8" r="3.6"/>
    <circle cx="17" cy="-8" r="3.6"/>
    <circle cx="-17" cy="8" r="3.6"/>
    <circle cx="17" cy="8" r="3.6"/>
  </g>
</svg>