<svg width="260" height="143" viewBox="0 0 260 143" fill="none" xmlns="http://www.w3.org/2000/svg">
<g clip-path="url(#clip0_513_1072)">
<path d="M31 59.6685C31.5332 59.8462 31.5332 59.8462 31.7919 59.9751C31.8507 60.0043 31.9096 60.0334 31.9702 60.0634C32.0335 60.0952 32.0968 60.1269 32.162 60.1596C32.2303 60.1936 32.2986 60.2275 32.369 60.2625C32.5974 60.3761 32.8257 60.4902 33.0539 60.6043C33.2178 60.686 33.3817 60.7676 33.5457 60.8492C33.9908 61.0709 34.4356 61.293 34.8805 61.5152C35.1585 61.6541 35.4366 61.7929 35.7147 61.9316C36.4856 62.3163 37.2564 62.701 38.027 63.0862C38.0762 63.1108 38.1255 63.1355 38.1763 63.1608C38.2761 63.2108 38.376 63.2607 38.4759 63.3106C38.5502 63.3478 38.5502 63.3478 38.6261 63.3857C38.6757 63.4105 38.7253 63.4353 38.7765 63.4609C39.5803 63.8626 40.3844 64.2636 41.1887 64.6643C42.0156 65.0762 42.8421 65.4887 43.6684 65.9019C44.1319 66.1336 44.5955 66.365 45.0594 66.5959C45.4959 66.8131 45.9321 67.0311 46.368 67.2497C46.5277 67.3296 46.6875 67.4092 46.8475 67.4886C47.0665 67.5973 47.2851 67.707 47.5036 67.817C47.5663 67.8478 47.6291 67.8787 47.6938 67.9105C48.8921 68.5185 49.6225 69.3699 50.0633 70.6295C50.2995 71.7356 50.0749 72.8566 49.4857 73.8092C48.7318 74.8836 47.4263 75.3615 46.2875 75.9233C45.8521 76.1385 45.4212 76.3608 44.9926 76.589C44.4271 76.8897 43.8564 77.1783 43.2826 77.4629C42.8321 77.6871 42.3858 77.9182 41.9413 78.1541C41.3746 78.4548 40.8039 78.746 40.2282 79.029C39.7889 79.2461 39.3552 79.473 38.9221 79.702C38.0632 80.1557 37.1981 80.5969 36.3324 81.0376C36.0058 81.2039 35.6792 81.3704 35.3526 81.5369C35.2719 81.578 35.1911 81.6192 35.1079 81.6616C34.5902 81.9258 34.0734 82.1916 33.5573 82.4589C33.493 82.4922 33.4287 82.5254 33.3625 82.5597C33.0642 82.714 32.7661 82.8686 32.4683 83.0238C32.363 83.0783 32.2578 83.1327 32.1526 83.1872C32.018 83.2572 32.018 83.2572 31.8807 83.3286C31.632 83.447 31.632 83.447 31.158 83.605C31.1319 81.7802 31.1059 79.9553 31.079 78.0751C33.519 77.0811 33.519 77.0811 34.7376 76.6087C34.9441 76.5285 35.1505 76.4481 35.357 76.3678C35.5001 76.3121 35.6434 76.2564 35.7866 76.2008C36.5605 75.8998 37.3337 75.5967 38.1069 75.2936C38.766 75.0354 39.4254 74.7777 40.0848 74.5202C40.1453 74.4966 40.2058 74.473 40.2681 74.4486C40.6216 74.3107 40.9752 74.1733 41.3291 74.0363C41.4117 74.0041 41.4944 73.9719 41.5796 73.9387C41.6529 73.9104 41.7263 73.8822 41.8018 73.853C41.895 73.817 41.895 73.817 41.99 73.7802C42.1388 73.7302 42.1388 73.7302 42.2968 73.7302C42.2968 72.14 42.2968 70.5497 42.2968 68.9113C41.8797 68.807 41.4626 68.7027 41.0328 68.5953C40.7173 68.5027 40.4037 68.4083 40.0904 68.3089C40.0045 68.2821 39.9187 68.2552 39.8302 68.2275C39.6456 68.1698 39.461 68.1119 39.2765 68.0538C38.7754 67.8962 38.2738 67.7398 37.7723 67.5834C37.7198 67.5671 37.6673 67.5507 37.6133 67.5338C36.7421 67.2623 35.8696 66.9954 34.9962 66.7311C34.9362 66.713 34.8762 66.6948 34.8144 66.6761C34.224 66.4974 33.6334 66.3192 33.0427 66.1413C32.8239 66.0754 32.6051 66.0093 32.3864 65.9433C32.2352 65.8977 32.084 65.8523 31.9328 65.8069C31.8431 65.7798 31.7533 65.7527 31.6608 65.7248C31.5824 65.7012 31.5039 65.6776 31.4231 65.6533C31.237 65.5934 31.237 65.5934 31.079 65.5144C31.0529 63.5852 31.0269 61.6561 31 59.6685Z" fill="black"/>
<path d="M53.9859 77.7596C54.8419 78.3767 55.2997 79.202 55.5659 80.2086C55.6057 80.5149 55.6045 80.8137 55.5972 81.1221C55.5955 81.2612 55.5955 81.2612 55.5938 81.4032C55.5659 82.9905 55.4753 84.5771 55.3956 86.1624C55.3764 86.5469 55.3575 86.9315 55.3386 87.316C55.294 88.2219 55.2488 89.1277 55.2033 90.0336C55.1564 90.9674 55.1105 91.9013 55.0649 92.8352C55.0257 93.6401 54.9859 94.445 54.9456 95.2499C54.9216 95.7294 54.8978 96.209 54.8746 96.6885C54.8528 97.1375 54.8303 97.5864 54.8073 98.0353C54.7989 98.2001 54.7908 98.365 54.783 98.5299C54.7723 98.7542 54.7607 98.9785 54.7489 99.2028C54.7445 99.3014 54.7445 99.3014 54.7401 99.402C54.7233 99.7021 54.7091 99.861 54.5389 100.116C54.4036 100.039 54.2682 99.9615 54.1328 99.8842C54.0443 99.8336 53.9557 99.783 53.8645 99.7309C53.6673 99.6182 53.4701 99.5054 53.273 99.3927C52.8001 99.1223 52.3272 98.8522 51.8536 98.5832C51.6517 98.4685 51.4498 98.3537 51.248 98.2388C51.1514 98.1839 51.0548 98.1291 50.9581 98.0743C50.8226 97.9976 50.6873 97.9205 50.552 97.8435C50.475 97.7998 50.3981 97.7561 50.3188 97.7111C50.1354 97.6006 49.969 97.481 49.799 97.3513C49.9652 96.0178 50.1593 94.6895 50.3631 93.3613C50.4047 93.0899 50.4461 92.8185 50.4874 92.547C50.5741 91.9784 50.6611 91.4098 50.7481 90.8412C50.8799 89.9798 50.6611 91.4098 50.7481 90.8412C50.8799 89.9798 51.0115 89.1185 51.1428 88.2571C51.1919 87.9352 51.2411 87.6133 51.2905 87.2914C51.3281 87.046 51.3655 86.8005 51.403 86.5551C51.4235 86.4217 51.4235 86.4217 51.4444 86.2856C51.4567 86.205 51.4689 86.1243 51.4689 86.1243C51.4689 86.1243 51.4816 86.0411 51.4816 86.0411C51.4924 85.9708 51.5031 85.9005 51.5142 85.8281C51.5405 85.6617 51.5405 85.6617 51.537 85.5015C51.4871 85.4738 51.4372 85.4461 51.3858 85.4175C50.3371 84.8344 49.2937 84.2448 48.261 83.6337C48.1863 83.5897 48.1115 83.5457 48.0345 83.5003C47.9689 83.4614 47.9033 83.4225 47.8357 83.3825C47.6601 83.2797 47.6601 83.2797 47.4291 83.2105C46.6888 83.8921 45.9522 84.5774 45.2171 85.2645C44.6539 85.7909 44.0907 86.3173 43.5236 86.8395C43.0333 87.2911 42.5472 87.747 42.0612 88.2032C39.6732 90.4446 39.6732 90.4446 38.8972 91.1104C38.1244 90.7485 37.3907 90.3304 36.6564 89.8964C36.2197 89.6389 35.7811 89.3862 35.3367 89.1422C35.2007 89.0673 35.2007 89.0673 35.0619 88.9909C34.886 88.8944 34.7098 88.7986 34.5332 88.7034C34.4541 88.6599 34.3749 88.6164 34.2934 88.5716C34.2231 88.5336 34.1529 88.4955 34.0805 88.4563C33.9203 88.3454 33.9203 88.3454 33.8413 88.1084C33.8812 88.0826 33.9212 88.0567 33.9623 88.03C34.9564 87.3852 35.9478 86.7364 36.9371 86.0841C37.0775 85.9916 37.2179 85.899 37.3583 85.8065C37.6484 85.6154 37.9385 85.4242 38.2286 85.2329C38.8453 84.8265 39.4621 84.4204 40.0789 84.0142C40.4158 83.7924 40.7526 83.5706 41.0894 83.3488C41.2244 83.2599 41.3593 83.171 41.4943 83.0822C41.5611 83.0382 41.6279 82.9942 41.6967 82.9488C42.304 82.5489 42.304 82.5489 42.5064 82.4156C42.6415 82.3267 42.7765 82.2378 42.9116 82.1488C43.2477 81.9275 43.5838 81.7062 43.9199 81.4849C44.5426 81.0748 45.1653 80.6647 45.7878 80.2544C46.0763 80.0642 46.3648 79.8741 46.6534 79.684C46.7886 79.5948 46.9239 79.5057 47.0591 79.4165C47.3719 79.2102 47.6849 79.0042 47.9983 78.7987C48.2648 78.6239 48.5301 78.4475 48.795 78.2703C48.9341 78.178 49.0733 78.0858 49.2124 77.9935C49.2753 77.9511 49.3382 77.9086 49.403 77.8648C50.8314 76.9229 52.5122 76.8448 53.9859 77.7596Z" fill="black"/>
<path d="M59.6748 43C60.0122 43.1026 60.3018 43.2319 60.6068 43.4083C60.6946 43.4587 60.7825 43.5092 60.873 43.5612C60.9674 43.616 61.0617 43.6709 61.1561 43.7258C61.3033 43.8111 61.4506 43.8963 61.5979 43.9816C61.699 44.0401 61.8002 44.0987 61.9013 44.1574C62.2036 44.3325 62.5074 44.5046 62.8132 44.6737C62.9577 44.7538 63.1019 44.8343 63.2461 44.915C63.4267 45.016 63.6079 45.116 63.7896 45.2149C63.8708 45.2607 63.9519 45.3065 64.0355 45.3536C64.1071 45.3931 64.1786 45.4327 64.2523 45.4734C64.462 45.6458 64.4624 45.7356 64.4938 46.0019C64.4763 46.2307 64.4763 46.2307 64.4373 46.4873C64.4155 46.6337 64.4155 46.6337 64.3933 46.783C64.3766 46.8905 64.3599 46.9981 64.3432 47.1056C64.326 47.2192 64.3089 47.3329 64.2919 47.4466C64.2454 47.7548 64.1982 48.0629 64.1508 48.371C64.1014 48.6931 64.0528 49.0154 64.0041 49.3376C63.9117 49.9476 63.8187 50.5575 63.7254 51.1673C63.6192 51.8617 63.5138 52.5562 63.4084 53.2507C63.1917 54.6792 62.9741 56.1075 62.7558 57.5357C62.8125 57.5674 62.8692 57.5991 62.9276 57.6318C63.1407 57.7509 63.3538 57.87 63.5668 57.9892C63.7033 58.0655 63.8398 58.1418 63.9763 58.2181C64.664 58.6029 65.3448 58.9976 66.0214 59.4016C66.1348 59.4686 66.1348 59.4686 66.2505 59.5369C66.3484 59.5953 66.3484 59.5953 66.4481 59.6548C66.618 59.7431 66.7526 59.8042 66.9427 59.8267C67.135 59.6797 67.135 59.6797 67.318 59.4712C67.5589 59.2175 67.7971 58.9723 68.0635 58.7454C68.3115 58.5332 68.5412 58.3092 68.7696 58.0763C68.9124 57.936 69.0594 57.8048 69.2111 57.6743C69.5444 57.3845 69.8662 57.0841 70.1866 56.7803C70.305 56.6685 70.4234 56.5567 70.5418 56.4449C70.6006 56.3893 70.6595 56.3337 70.7201 56.2764C70.9776 56.0337 71.2362 55.7922 71.495 55.5509C71.5431 55.506 71.5912 55.4612 71.6408 55.415C71.7376 55.3247 71.8345 55.2344 71.9313 55.1442C72.0806 55.005 72.2297 54.8657 72.3788 54.7264C72.886 54.2523 73.3942 53.7794 73.9047 53.3089C74.403 52.8496 74.8992 52.3882 75.3956 51.9268C76.0224 52.2313 76.6285 52.5582 77.2273 52.9143C78.0082 53.3746 78.7952 53.8217 79.5876 54.2618C79.6663 54.3055 79.7449 54.3492 79.826 54.3943C79.9301 54.452 79.9301 54.452 80.0364 54.5109C80.1781 54.592 80.3156 54.6802 80.4515 54.7708C80.36 55.0453 80.3088 55.0713 80.0724 55.2205C80.0092 55.2609 79.946 55.3014 79.8809 55.343C79.7776 55.4077 79.7776 55.4077 79.6723 55.4738C79.5266 55.5667 79.381 55.6596 79.2354 55.7526C79.1612 55.7998 79.087 55.847 79.0105 55.8955C78.6861 56.1027 78.3647 56.3145 78.0436 56.5267C77.918 56.6094 77.7924 56.6922 77.6668 56.7749C77.5368 56.8607 77.4067 56.9464 77.2767 57.0321C77.1363 57.1247 76.9959 57.2172 76.8555 57.3097C76.5654 57.5009 76.2753 57.6921 75.9852 57.8833C75.3685 58.2897 74.7517 58.6959 74.1349 59.102C73.798 59.3238 73.4612 59.5456 73.1244 59.7674C72.9894 59.8563 72.8544 59.9452 72.7195 60.0341C72.6527 60.0781 72.5859 60.1221 72.517 60.1674C71.9097 60.5673 71.9097 60.5673 71.7073 60.7006C71.5723 60.7895 71.4372 60.8785 71.3022 60.9674C70.9663 61.1886 70.6304 61.4098 70.2944 61.631C69.6695 62.0425 69.0446 62.4541 68.4199 62.8659C68.1291 63.0576 67.8382 63.2493 67.5474 63.4409C67.4105 63.5311 67.2737 63.6214 67.1368 63.7116C66.7038 63.9972 66.2705 64.2822 65.8367 64.5666C65.7749 64.6072 65.7131 64.6478 65.6494 64.6897C65.4672 64.8092 65.2848 64.9284 65.1023 65.0474C65.0211 65.1008 65.0211 65.1008 64.9382 65.1552C63.8698 65.8497 62.7963 66.0948 61.5344 65.8584C60.5573 65.5583 59.7433 64.9786 59.2203 64.0957C58.8364 63.3611 58.7007 62.7347 58.7121 61.9142C58.7127 61.8348 58.7133 61.7554 58.7139 61.6736C58.723 60.8251 58.7619 59.9785 58.8054 59.1313C58.8138 58.9598 58.8223 58.7883 58.8307 58.6168C58.8533 58.1574 58.8764 57.698 58.8997 57.2386C58.9241 56.7557 58.9481 56.2727 58.9721 55.7897C59.0123 54.9806 59.0529 54.1716 59.0938 53.3625C59.141 52.4276 59.1877 51.4927 59.2341 50.5578C59.2788 49.6555 59.3239 48.7532 59.3692 47.851C59.3884 47.4679 59.4075 47.0849 59.4266 46.7018C59.4489 46.2519 59.4716 45.8019 59.4944 45.352C59.5028 45.187 59.511 45.0219 59.5192 44.8569C59.5303 44.6318 59.5418 44.4067 59.5534 44.1816C59.5581 44.0836 59.5581 44.0836 59.5629 43.9837C59.5804 43.6504 59.612 43.3286 59.6748 43Z" fill="black"/>
<path d="M54.3822 43C54.4488 43.4231 54.4849 43.8421 54.5097 44.2695C54.5139 44.34 54.5182 44.4104 54.5226 44.4829C54.5368 44.7181 54.5506 44.9532 54.5644 45.1883C54.5746 45.3573 54.5847 45.5264 54.5948 45.6954C54.6223 46.1542 54.6495 46.6131 54.6766 47.072C54.6936 47.3595 54.7106 47.6469 54.7277 47.9344C54.7873 48.9395 54.8467 49.9446 54.9059 50.9497C54.9609 51.8826 55.0164 52.8155 55.0722 53.7483C55.1202 54.5518 55.1678 55.3553 55.2151 56.1588C55.2433 56.6375 55.2716 57.1162 55.3004 57.5948C55.3275 58.0464 55.3541 58.4981 55.3804 58.9497C55.39 59.1139 55.3998 59.2781 55.4098 59.4422C55.4625 60.3077 55.4975 61.1713 55.502 62.0385C55.5031 62.1568 55.5031 62.1568 55.5042 62.2775C55.5031 63.3598 55.1054 64.1363 54.3822 64.932C53.6384 65.6494 52.6834 65.9822 51.6666 66.0133C50.5556 65.9926 49.7002 65.5146 48.8018 64.9048C48.3584 64.6038 47.9079 64.315 47.455 64.0284C46.6883 63.5426 45.9265 63.0497 45.1661 62.554C44.7114 62.2578 44.2554 61.9636 43.7997 61.669C43.6416 61.5668 43.4837 61.4644 43.3258 61.3619C42.6597 60.93 41.9917 60.5011 41.3227 60.0736C40.5198 59.5603 39.7198 59.0427 38.9214 58.5225C38.4679 58.2273 38.0132 57.9339 37.5588 57.6401C37.4007 57.5378 37.2428 57.4354 37.0849 57.333C37.0326 57.2991 36.9802 57.2651 36.9263 57.2302C36.819 57.1606 36.7118 57.091 36.6046 57.0214C36.2529 56.7934 35.8993 56.5685 35.5447 56.3449C35.4102 56.2598 35.2758 56.1746 35.1413 56.0895C35.0105 56.0069 34.8794 55.9248 34.7483 55.8428C34.3539 55.5929 33.9927 55.3609 33.6846 55.0078C34.4637 54.5358 35.2482 54.0734 36.0369 53.6176C36.4369 53.3856 36.8335 53.1502 37.2247 52.9035C37.3323 52.8364 37.3323 52.8364 37.442 52.7678C37.5772 52.683 37.7117 52.5971 37.8453 52.5098C38.2866 52.2345 38.2866 52.2345 38.5572 52.2728C38.7867 52.4331 39.0004 52.6052 39.2095 52.7909C39.5715 53.1046 39.9378 53.4098 40.3155 53.7043C40.3845 53.7582 40.3845 53.7582 40.4549 53.8131C40.5481 53.8858 40.6413 53.9583 40.7346 54.0309C41.4202 54.5639 42.0996 55.1036 42.7725 55.6527C43.111 55.9285 43.4522 56.2005 43.7964 56.4693C44.1952 56.7807 44.5893 57.0973 44.9814 57.4172C45.4671 57.8134 45.9558 58.2052 46.4509 58.5896C46.6372 58.7343 46.8205 58.8821 47.0026 59.0321C47.0942 59.106 47.1857 59.18 47.2773 59.254C47.3394 59.3065 47.3394 59.3065 47.4028 59.36C47.6398 59.5511 47.6398 59.5511 47.9333 59.572C48.1582 59.5057 48.3321 59.4168 48.5335 59.2972C48.609 59.2527 48.6844 59.2083 48.7622 59.1625C48.8424 59.1145 48.9227 59.0664 49.0054 59.017C49.0883 58.968 49.1712 58.9191 49.2566 58.8686C49.6028 58.6641 49.9481 58.458 50.2934 58.2519C50.4567 58.1544 50.6201 58.0571 50.7836 57.9598C50.9358 57.8692 51.0878 57.7782 51.2395 57.6869C51.3078 57.6462 51.376 57.6055 51.4463 57.5635C51.5062 57.5275 51.5661 57.4915 51.6279 57.4545C51.7752 57.3777 51.7752 57.3777 51.9332 57.3777C51.9203 57.3217 51.9073 57.2656 51.894 57.2078C51.5786 55.8423 51.2634 54.4768 50.9485 53.1112C50.7962 52.4509 50.6439 51.7905 50.4913 51.1302C50.3583 50.5545 50.2255 49.9789 50.0928 49.4032C50.0226 49.0984 49.9523 48.7937 49.8818 48.489C49.8154 48.202 49.7492 47.915 49.6832 47.6279C49.6475 47.4727 49.6115 47.3177 49.5755 47.1626C49.4749 46.7241 49.3784 46.291 49.3263 45.8439C49.3821 45.8123 49.438 45.7806 49.4955 45.748C50.7473 45.0372 51.9918 44.3158 53.2284 43.5789C53.376 43.4912 53.5236 43.4036 53.6712 43.316C53.7296 43.2811 53.788 43.2462 53.8481 43.2103C54.2059 43 54.2059 43 54.3822 43Z" fill="black"/>
<path d="M66.8005 78.9861C67.3104 79.3229 67.8244 79.6529 68.3398 79.9813C68.9691 80.3827 69.5963 80.7872 70.2209 81.1959C70.9384 81.6653 71.6595 82.1287 72.3821 82.5901C73.0917 83.0435 73.7979 83.5019 74.5034 83.9616C74.9569 84.2567 75.4116 84.5502 75.8661 84.844C76.0241 84.9462 76.182 85.0486 76.3399 85.1511C76.9281 85.5324 77.5175 85.9117 78.1085 86.2887C78.445 86.5036 78.781 86.7191 79.117 86.9349C79.2609 87.0272 79.405 87.1192 79.5492 87.211C79.7204 87.3201 79.8909 87.4301 80.0612 87.5405C80.1101 87.5713 80.159 87.6021 80.2094 87.6338C80.3405 87.7197 80.3405 87.7197 80.5302 87.8713C80.5302 87.9495 80.5302 88.0277 80.5302 88.1083C80.4008 88.2119 80.4008 88.2119 80.2167 88.3172C80.1137 88.377 80.1137 88.377 80.0085 88.4381C79.933 88.4808 79.8575 88.5235 79.7798 88.5674C79.7023 88.6122 79.6249 88.6569 79.5451 88.7029C79.3798 88.7984 79.2142 88.8935 79.0485 88.9883C78.7106 89.1821 78.3744 89.3788 78.0382 89.5755C77.7335 89.7538 77.4287 89.9318 77.1227 90.1078C76.9611 90.203 76.8015 90.3016 76.6434 90.4024C76.56 90.4545 76.4767 90.5066 76.3908 90.5603C76.3156 90.6087 76.2403 90.6572 76.1627 90.7071C75.9483 90.7942 75.9483 90.7942 75.7415 90.744C75.565 90.6429 75.4148 90.5407 75.2599 90.4094C75.2063 90.3645 75.1526 90.3196 75.0974 90.2733C75.0409 90.2252 74.9845 90.1772 74.9263 90.1277C74.8056 90.0265 74.6849 89.9255 74.564 89.8246C74.5042 89.7745 74.4443 89.7245 74.3826 89.6729C74.1428 89.4742 73.8983 89.2819 73.6524 89.0908C73.2551 88.7812 72.8626 88.4663 72.4724 88.1478C72.0804 87.8278 71.6862 87.5112 71.2874 87.1998C70.834 86.8457 70.3871 86.4841 69.9414 86.1203C69.5589 85.8087 69.1725 85.5027 68.7835 85.1993C68.3647 84.8717 67.9527 84.536 67.5422 84.198C67.396 84.0782 67.2486 83.9599 67.1005 83.8423C67.0513 83.8025 67.0021 83.7627 66.9514 83.7216C66.7052 83.5115 66.7052 83.5115 66.402 83.461C66.1785 83.5466 65.9799 83.658 65.7723 83.7772C65.7279 83.8026 65.6835 83.828 65.6377 83.8542C65.4931 83.9371 65.3488 84.0205 65.2045 84.104C65.1051 84.1612 65.0058 84.2183 64.9064 84.2754C64.0778 84.7526 63.2564 85.2414 62.4396 85.7383C62.4396 85.7383 62.5352 86.3479 62.5352 86.3479C62.5352 86.3479 62.6496 86.9488 62.7905 87.5495C62.8092 87.6301 62.8278 87.7106 62.8471 87.7937C62.9081 88.0572 62.9696 88.3206 63.0311 88.5841C63.0743 88.7699 63.1174 88.9556 63.1605 89.1414C63.2737 89.6294 63.3873 90.1172 63.5009 90.6051C63.6378 91.193 63.7743 91.781 63.9109 92.3689C64.0372 92.9131 64.1638 93.4573 64.2905 94.0014C64.3477 94.2473 64.4045 94.4933 64.4613 94.7393C64.5368 95.0659 64.614 95.392 64.692 95.718C64.7294 95.8761 64.7667 96.0343 64.804 96.1925C64.8218 96.2651 64.8395 96.3376 64.8577 96.4124C64.8734 96.4794 64.889 96.5464 64.9052 96.6155C64.9192 96.6739 64.9332 96.7323 64.9476 96.7925C64.97 96.9767 64.9518 97.0982 64.8885 97.2721C64.7466 97.3822 64.7466 97.3822 64.5583 97.4832C64.4521 97.5414 64.4521 97.5414 64.3438 97.6009C64.2661 97.6423 64.1884 97.6837 64.1084 97.7263C63.9428 97.8171 63.7773 97.9082 63.6119 97.9994C63.4804 98.0718 63.4804 98.0718 63.3462 98.1456C62.8726 98.4103 62.4069 98.6879 61.9409 98.9656C61.809 99.044 61.809 99.044 61.6745 99.124C61.59 99.1743 61.5055 99.2246 61.4185 99.2764C61.3376 99.3244 61.2568 99.3725 61.1736 99.422C61.018 99.5154 60.8631 99.6099 60.7089 99.7057C60.6386 99.7491 60.5682 99.7926 60.4958 99.8374C60.4035 99.8953 60.4035 99.8953 60.3093 99.9544C60.1486 100.037 60.1486 100.037 59.9116 100.037C59.764 98.1873 59.6556 96.3353 59.5462 94.483C59.5307 94.2207 59.5151 93.9584 59.4996 93.6961C59.4451 92.7775 59.3908 91.8589 59.3367 90.9402C59.2865 90.0891 59.2359 89.2379 59.1851 88.3868C59.1412 87.6507 59.0976 86.9146 59.0543 86.1785C59.0285 85.7411 59.0026 85.3038 58.9764 84.8664C58.9517 84.4556 58.9275 84.0447 58.9036 83.6339C58.8949 83.4844 58.8859 83.335 58.8769 83.1855C58.8321 82.4477 58.7974 81.7111 58.7923 80.9718C58.7916 80.9111 58.7908 80.8504 58.79 80.7878C58.7906 79.8021 59.1822 78.8899 59.8573 78.1742C62.2091 75.9918 64.5938 77.5283 66.8005 78.9861Z" fill="black"/>
<path d="M83.1392 59.4316C83.2429 61.2741 83.226 63.1169 83.2182 64.9615C82.8208 65.1657 82.4247 65.3496 82.0061 65.5065C81.9507 65.5276 81.8953 65.5487 81.8382 65.5705C81.7172 65.6166 81.5961 65.6625 81.4749 65.7084C81.1333 65.8377 80.7922 65.9684 80.4511 66.099C80.3397 66.1416 80.3397 66.1416 80.2261 66.1851C79.2446 66.5615 78.2666 66.9467 77.2884 67.3315C77.1943 67.3685 77.1002 67.4055 77.0032 67.4437C75.3614 68.0895 73.7201 68.7368 72.0794 69.3855C72.0774 69.7939 72.076 70.2023 72.0751 70.6107C72.0747 70.7487 72.0741 70.8868 72.0734 71.0249C72.0684 72.0609 72.1004 73.0911 72.1584 74.1254C72.8957 74.3526 73.633 74.5797 74.3704 74.8067C74.4265 74.824 74.4827 74.8413 74.5405 74.8591C76.6971 75.5231 78.8548 76.1834 81.013 76.842C81.2508 76.9145 81.4887 76.9871 81.7265 77.0597C81.8904 77.1098 82.0544 77.1598 82.2183 77.2097C82.3158 77.2395 82.4132 77.2692 82.5137 77.2999C82.5987 77.3258 82.6837 77.3517 82.7713 77.3785C82.9208 77.4247 83.0698 77.4728 83.2182 77.5223C83.2996 78.7934 83.3066 80.0606 83.3021 81.334C83.3017 81.5323 83.3014 81.7306 83.3011 81.929C83.3002 82.4087 83.2989 82.8885 83.2972 83.3682C82.9531 83.3183 82.6834 83.1944 82.3736 83.039C82.322 83.0133 82.2704 82.9875 82.2172 82.9611C82.0468 82.876 81.8768 82.7902 81.7067 82.7044C81.5869 82.6444 81.4671 82.5844 81.3473 82.5245C81.0954 82.3984 80.8438 82.272 80.5922 82.1453C80.2744 81.9853 79.9563 81.8258 79.6381 81.6666C79.3302 81.5124 79.0224 81.3579 78.7147 81.2035C78.658 81.1751 78.6014 81.1467 78.543 81.1174C77.9796 80.8348 77.4179 80.5495 76.8613 80.2537C75.8817 79.7332 74.8878 79.2421 73.8934 78.7508C73.568 78.59 73.2428 78.4286 72.9177 78.2672C72.8623 78.2397 72.8069 78.2121 72.7499 78.1838C72.6368 78.1277 72.5238 78.0715 72.4107 78.0154C71.6566 77.6408 70.9024 77.2666 70.1474 76.894C69.634 76.6406 69.1211 76.3864 68.6087 76.1311C68.339 75.9967 68.0691 75.8629 67.7986 75.7301C67.5447 75.6055 67.2914 75.4796 67.0385 75.3529C66.903 75.2854 66.7669 75.2191 66.6308 75.1529C65.5734 74.6194 64.7411 73.8306 64.3375 72.7034C63.9989 71.6624 64.1378 70.5437 64.619 69.5731C65.2635 68.4953 66.1739 68.0632 67.2677 67.5248C67.6029 67.3581 67.9326 67.1819 68.2628 67.0056C68.8334 66.7037 69.4093 66.4136 69.9875 66.1267C70.4381 65.9025 70.8844 65.6714 71.3289 65.4355C71.8956 65.1348 72.4663 64.8437 73.042 64.5607C73.4813 64.3435 73.915 64.1166 74.3481 63.8877C75.1292 63.475 75.9154 63.0726 76.7026 62.6718C77.1089 62.465 77.5149 62.2578 77.921 62.0506C78.0019 62.0093 78.0829 61.968 78.1663 61.9255C78.8555 61.5739 79.5442 61.2214 80.2323 60.8677C80.344 60.8103 80.4557 60.753 80.5674 60.6957C80.7226 60.616 80.8777 60.5363 81.0328 60.4565C81.0816 60.4314 81.1303 60.4063 81.1806 60.3805C81.4575 60.2376 81.733 60.0923 82.0077 59.9451C82.1001 59.8957 82.1001 59.8957 82.1943 59.8453C82.3139 59.7811 82.4334 59.7167 82.5527 59.652C82.9638 59.4316 82.9638 59.4316 83.1392 59.4316Z" fill="black"/>
<path d="M44.1111 49.1631C44.4365 49.3307 44.6601 49.5459 44.9116 49.8049C45.1022 49.9963 45.3049 50.1706 45.5093 50.3468C45.7312 50.5412 45.9482 50.7407 46.1651 50.9406C46.4241 51.1791 46.6838 51.4163 46.9501 51.6466C47.2803 51.9326 47.5997 52.23 47.9194 52.5275C48.1577 52.7488 48.3992 52.9635 48.6486 53.1723C49.1841 53.6444 49.4637 54.0533 49.5528 54.7751C49.5747 55.3283 49.4272 55.8324 49.088 56.273C48.6953 56.6977 48.27 56.9453 47.692 57.0062C46.9465 57.0309 46.4807 56.847 45.917 56.3683C45.4013 55.7562 45.2953 54.9597 45.1295 54.2008C45.0999 54.068 45.0702 53.9353 45.0405 53.8025C44.9786 53.5254 44.9173 53.2482 44.8565 52.9709C44.7785 52.6158 44.6995 52.261 44.6201 51.9062C44.5589 51.6326 44.4981 51.3588 44.4375 51.085C44.4085 50.9541 44.3794 50.8233 44.3502 50.6924C44.3095 50.5097 44.2694 50.3269 44.2294 50.144C44.2113 50.0634 44.2113 50.0634 44.1928 49.9812C44.1329 49.7038 44.0981 49.447 44.1111 49.1631Z" fill="black"/>
<path d="M69.946 49.0049C70.0666 49.3193 69.9859 49.6026 69.917 49.9196C69.9045 49.9795 69.8921 50.0394 69.8792 50.1011C69.8378 50.2992 69.7954 50.4969 69.7528 50.6947C69.7235 50.8327 69.6943 50.9706 69.665 51.1086C69.6035 51.398 69.5414 51.6872 69.4789 51.9764C69.3992 52.3457 69.3213 52.7153 69.2439 53.0851C69.1839 53.3703 69.1227 53.6553 69.0613 53.9403C69.0321 54.0764 69.0033 54.2125 68.9749 54.3488C68.778 55.2912 68.5815 56.101 67.7341 56.6677C67.221 56.951 66.6669 57.0021 66.1029 56.8473C65.4404 56.6026 65.0448 56.2777 64.7321 55.6408C64.5518 55.0731 64.5638 54.4123 64.816 53.8732C65.0935 53.3908 65.4807 53.0585 65.8964 52.6984C66.2232 52.4127 66.5399 52.1175 66.8552 51.8192C67.2587 51.4391 67.6649 51.0633 68.0788 50.6944C68.4063 50.3979 68.7279 50.0948 69.0493 49.7916C69.3402 49.5184 69.6368 49.2572 69.946 49.0049Z" fill="black"/>
<path d="M48.9507 86.5734C49.3971 86.9395 49.6086 87.3553 49.6768 87.9272C49.6994 88.66 49.5997 89.1767 49.0926 89.7188C49.0066 89.8035 48.9198 89.8873 48.8322 89.9703C48.7899 90.0118 48.7477 90.0533 48.7041 90.0961C48.421 90.3715 48.126 90.6314 47.8277 90.8903C47.5608 91.1253 47.3032 91.3701 47.0448 91.6145C46.6418 91.9941 46.2364 92.3699 45.8225 92.7377C45.6487 92.8955 45.4775 93.0552 45.3072 93.2167C45.2534 93.2675 45.1996 93.3184 45.1441 93.3708C45.0368 93.4725 44.9297 93.5745 44.823 93.6768C44.7741 93.723 44.7252 93.7692 44.6749 93.8169C44.6311 93.8587 44.5873 93.9005 44.5422 93.9436C44.428 94.0338 44.428 94.0338 44.27 94.0338C44.3867 93.2872 44.5335 92.5479 44.6888 91.8086C44.7012 91.7493 44.7136 91.6901 44.7265 91.629C44.7922 91.3162 44.8583 91.0034 44.9245 90.6907C44.9789 90.434 45.0325 90.1771 45.0856 89.9201C45.1503 89.6069 45.2162 89.2939 45.2828 88.981C45.3078 88.8628 45.3324 88.7446 45.3566 88.6262C45.5357 87.7521 45.7184 86.9798 46.482 86.4499C47.3098 85.9769 48.1651 86.0511 48.9507 86.5734Z" fill="black"/>
<path d="M68.0658 86.4081C68.6312 86.8666 68.8567 87.4298 69.0061 88.1283C69.027 88.2209 69.027 88.2209 69.0483 88.3154C69.0935 88.5169 69.1376 88.7187 69.1817 88.9206C69.213 89.0614 69.2444 89.2022 69.2759 89.343C69.3582 89.7116 69.4395 90.0805 69.5206 90.4494C69.6037 90.8266 69.6877 91.2036 69.7717 91.5806C69.9359 92.319 70.0992 93.0575 70.2617 93.7963C70.2617 93.7963 70.1835 93.8354 70.1037 93.8753C69.6863 93.5156 69.2784 93.1462 68.8731 92.773C68.6555 92.5729 68.4363 92.3751 68.2127 92.1817C67.8823 91.8955 67.5629 91.5975 67.2424 91.3003C67.0122 91.0872 66.7809 90.8763 66.5438 90.6709C66.4401 90.5804 66.3364 90.4899 66.2328 90.3993C66.1552 90.3319 66.0776 90.2645 65.9976 90.1951C64.8513 89.1837 64.8513 89.1837 64.792 88.4185C64.7801 87.838 64.7892 87.4057 65.1268 86.9234C65.1928 86.8183 65.1928 86.8183 65.2601 86.7111C66.0171 85.9541 67.1681 85.8064 68.0658 86.4081Z" fill="black"/>
<path d="M39.1357 69.8604C39.6481 70.2089 39.8635 70.6915 40.0047 71.2823C40.1074 71.921 39.8852 72.4675 39.5504 73.0055C39.0015 73.5392 38.4734 73.6857 37.7195 73.6791C37.138 73.6456 36.5913 73.4414 36.0421 73.2604C35.9154 73.2199 35.7886 73.1795 35.6618 73.1393C35.3312 73.034 35.0013 72.9268 34.6715 72.8192C34.3352 72.7099 33.9983 72.6026 33.6615 72.4951C33.1699 72.3377 32.6784 72.1798 32.1875 72.0201C32.0893 71.9881 31.991 71.9562 31.8898 71.9233C31.6683 71.8481 31.4519 71.7669 31.2358 71.6773C31.4076 71.5056 31.5034 71.4705 31.7308 71.3967C31.8009 71.3736 31.8711 71.3506 31.9434 71.3269C32.02 71.3023 32.0966 71.2777 32.1755 71.2524C32.2551 71.2265 32.3346 71.2005 32.4166 71.1738C32.6763 71.0893 32.9361 71.0056 33.196 70.9219C33.3735 70.8645 33.551 70.8071 33.7285 70.7497C34.0795 70.6363 34.4307 70.5233 34.782 70.4105C35.1345 70.2974 35.4867 70.1833 35.8386 70.0683C36.0947 69.985 36.3512 69.903 36.6077 69.8209C36.6959 69.7919 36.7841 69.7629 36.8749 69.7331C37.7013 69.4727 38.3497 69.4608 39.1357 69.8604Z" fill="black"/>
<path d="M78.1057 69.7572C78.2287 69.7957 78.3517 69.8341 78.4747 69.8724C78.7965 69.9729 79.1178 70.0749 79.4391 70.1772C79.7006 70.2602 79.9624 70.3422 80.2242 70.424C82.4312 71.1143 82.4312 71.1143 83.057 71.3603C82.978 71.5183 82.978 71.5183 82.7487 71.6088C82.6452 71.6428 82.5414 71.6762 82.4375 71.709C82.3809 71.7274 82.3244 71.7458 82.2662 71.7648C82.0785 71.8257 81.8906 71.8857 81.7026 71.9457C81.5724 71.9878 81.4422 72.0298 81.3121 72.072C80.9686 72.183 80.6249 72.2933 80.2811 72.4035C80.0008 72.4934 79.7207 72.5839 79.4406 72.6744C79.1068 72.7822 78.7729 72.8898 78.439 72.9974C78.3752 73.0179 78.3115 73.0385 78.2458 73.0596C78.065 73.1178 77.8842 73.1758 77.7034 73.2338C77.6233 73.2596 77.6233 73.2596 77.5416 73.2859C76.7891 73.5265 76.0888 73.63 75.3436 73.2918C74.8108 72.9645 74.4599 72.4893 74.3147 71.8824C74.2363 71.2733 74.3146 70.6778 74.6832 70.1753C75.6834 69.0731 76.8252 69.3461 78.1057 69.7572Z" fill="black"/>
<path d="M94.7671 59.7808C96.154 59.7808 97.541 59.7808 98.97 59.7808C99.629 60.7693 99.629 60.7693 99.8435 61.1556C99.8919 61.2421 99.9403 61.3286 99.9901 61.4177C100.041 61.5085 100.091 61.5993 100.143 61.6928C100.59 62.4911 101.043 63.2855 101.505 64.0753C101.59 64.221 101.59 64.221 101.677 64.3697C101.793 64.5666 101.908 64.7635 102.023 64.9603C102.307 65.4449 102.59 65.9299 102.874 66.4149C102.93 66.5112 102.986 66.6074 103.044 66.7066C103.526 67.5335 104.004 68.3627 104.482 69.1921C104.89 69.9008 105.301 70.608 105.714 71.3142C106.189 72.1272 106.661 72.9418 107.131 73.7578C108.207 75.6243 109.291 77.4851 110.406 79.329C110.674 79.0063 110.9 78.6836 111.107 78.3191C111.165 78.2181 111.223 78.1171 111.283 78.0131C111.344 77.905 111.405 77.797 111.469 77.6857C111.567 77.5137 111.665 77.3417 111.764 77.1698C111.831 77.0523 111.899 76.9349 111.966 76.8174C112.292 76.2476 112.622 75.6805 112.953 75.1139C113.009 75.0177 113.065 74.9215 113.123 74.8224C113.237 74.6286 113.35 74.4349 113.463 74.2412C113.63 73.9558 113.796 73.6703 113.963 73.3847C114.619 72.2584 115.277 71.1332 115.937 70.0087C116.581 68.9109 117.222 67.812 117.863 66.7125C118.203 66.1288 118.544 65.5453 118.884 64.9618C119.403 64.0722 119.403 64.0722 119.92 63.1813C120.036 62.9839 120.153 62.7878 120.273 62.5929C120.61 62.0395 120.864 61.5248 121.035 60.8982C121.176 60.6116 121.176 60.6116 121.939 59.7808C123.326 59.7808 124.713 59.7808 126.142 59.7808C126.142 67.5864 126.142 75.392 126.142 83.4341C124.755 83.4341 123.368 83.4341 121.939 83.4341C121.891 75.8382 121.891 75.8382 121.841 68.0888C121.454 68.7661 121.067 69.4435 120.669 70.1413C120.43 70.5436 120.19 70.9449 119.948 71.3448C119.469 72.1376 118.996 72.933 118.53 73.7333C118.475 73.8285 118.42 73.9237 118.363 74.0217C118.247 74.2199 118.132 74.4181 118.017 74.6163C117.682 75.192 117.346 75.767 117.009 76.3418C116.974 76.4015 116.939 76.4613 116.903 76.5229C116.356 77.4577 115.801 78.3878 115.241 79.3156C114.752 80.1278 114.274 80.9458 113.801 81.7675C113.749 81.8579 113.697 81.9482 113.643 82.0413C113.576 82.1585 113.576 82.1585 113.507 82.278C113.451 82.3693 113.395 82.4605 113.338 82.5545C113.301 82.6283 113.263 82.7021 113.225 82.7781C112.887 83.3844 112.887 83.3844 112.526 83.5168C112.25 83.5507 111.988 83.5561 111.71 83.551C111.61 83.5518 111.51 83.5526 111.408 83.5535C111.197 83.5541 110.987 83.5525 110.777 83.5488C110.455 83.5441 110.135 83.5488 109.814 83.5544C109.609 83.5538 109.404 83.5527 109.199 83.551C109.104 83.5527 109.008 83.5545 108.909 83.5564C108.26 83.5364 108.26 83.5364 107.976 83.2519C107.822 83.0258 107.695 82.7979 107.571 82.5545C107.508 82.45 107.444 82.3455 107.378 82.2378C107.322 82.1411 107.267 82.0444 107.209 81.9447C107.144 81.8337 107.08 81.7226 107.013 81.6082C106.98 81.5504 106.946 81.4926 106.912 81.4331C106.297 80.3717 105.67 79.3187 105.03 78.2722C104.573 77.5235 104.121 76.7733 103.698 76.005C103.315 75.3146 102.904 74.6412 102.496 73.9653C101.943 73.047 101.4 72.1231 100.86 71.1969C100.271 70.1881 99.6689 69.1886 99.0677 68.1865C99.0354 73.2182 99.0032 78.2499 98.97 83.4341C97.583 83.4341 96.1961 83.4341 94.7671 83.4341C94.7671 75.6285 94.7671 67.8229 94.7671 59.7808Z" fill="black"/>
<path d="M205.604 59.5845C208.019 59.5805 210.434 59.5765 212.922 59.5723C213.681 59.5705 214.441 59.5688 215.224 59.5669C216.159 59.566 216.159 59.566 216.598 59.5659C216.902 59.5657 217.205 59.565 217.509 59.5639C221.575 59.5501 221.575 59.5501 223.16 59.9877C223.236 60.0085 223.312 60.0294 223.391 60.0509C225.119 60.5528 226.597 61.5027 227.498 63.1032C228.334 64.7864 228.501 66.9574 228.029 68.7783C227.812 69.3878 227.488 69.9144 227.107 70.4338C227.032 70.5386 226.957 70.6435 226.881 70.7515C225.882 71.7731 224.551 72.3107 223.197 72.6819C223.372 72.7174 223.372 72.7174 223.551 72.7536C224.914 73.0378 226.212 73.3806 227.107 74.5389C227.788 75.7615 227.821 77.1067 227.81 78.4749C227.809 78.6134 227.809 78.7518 227.809 78.8902C227.808 79.25 227.806 79.6097 227.804 79.9695C227.802 80.4036 227.801 80.8377 227.8 81.2718C227.798 81.9272 227.794 82.5825 227.791 83.2379C226.404 83.2379 225.017 83.2379 223.588 83.2379C223.583 82.8352 223.578 82.4325 223.573 82.0177C223.569 81.6934 223.564 81.3692 223.56 81.045C223.555 80.7045 223.55 80.364 223.547 80.0235C223.542 79.6314 223.537 79.2393 223.531 78.8472C223.529 78.6671 223.529 78.6671 223.527 78.4833C223.509 77.4063 223.483 76.2141 222.806 75.3209C221.744 74.3993 220.211 74.3317 218.87 74.3234C218.772 74.3224 218.675 74.3214 218.575 74.3205C218.255 74.3174 217.936 74.315 217.617 74.3125C217.394 74.3105 217.172 74.3085 216.949 74.3064C216.366 74.301 215.782 74.2962 215.199 74.2914C214.497 74.2856 213.796 74.2792 213.095 74.2728C212.031 74.2633 210.968 74.2546 209.904 74.2457C209.904 77.2131 209.904 80.1806 209.904 83.2379C208.485 83.2379 207.066 83.2379 205.604 83.2379C205.604 75.4323 205.604 67.6267 205.604 59.5845ZM209.904 63.2987C209.904 65.75 209.904 68.2014 209.904 70.727C211.769 70.7356 211.769 70.7356 213.634 70.7413C214.395 70.7431 215.156 70.7452 215.918 70.7491C216.532 70.7523 217.146 70.7541 217.76 70.7548C217.994 70.7554 218.227 70.7564 218.461 70.758C218.79 70.7602 219.118 70.7605 219.447 70.7603C219.542 70.7614 219.638 70.7624 219.736 70.7635C220.938 70.7682 222.025 70.4746 222.929 69.6581C223.799 68.7492 224.017 67.7264 224.006 66.4994C223.947 65.7244 223.65 64.9456 223.099 64.3838C222.017 63.4619 220.692 63.2926 219.325 63.2976C219.223 63.2976 219.121 63.2976 219.015 63.2976C218.679 63.2976 218.344 63.2984 218.008 63.2991C217.774 63.2993 217.541 63.2995 217.307 63.2996C216.694 63.2999 216.081 63.3009 215.467 63.302C214.731 63.3032 213.994 63.3036 213.258 63.3042C212.14 63.3051 211.022 63.307 209.904 63.3087Z" fill="black"/>
<path d="M141.183 59.771C141.265 59.7712 141.346 59.7714 141.43 59.7717C141.522 59.7717 141.614 59.7717 141.709 59.7717C141.809 59.7722 141.909 59.7727 142.012 59.7732C142.113 59.7733 142.215 59.7735 142.32 59.7736C142.647 59.7742 142.974 59.7754 143.3 59.7766C143.521 59.7771 143.742 59.7776 143.963 59.778C144.506 59.7791 145.048 59.7807 145.591 59.7827C146.341 61.4648 147.09 63.1471 147.827 64.8347C147.854 64.8972 147.881 64.9597 147.91 65.0241C148.023 65.2844 148.137 65.5448 148.251 65.8052C148.624 66.6591 148.998 67.5124 149.372 68.3656C149.409 68.4495 149.446 68.5334 149.484 68.6197C150.096 70.0149 150.712 71.4087 151.328 72.8022C152.004 74.3313 152.677 75.8616 153.349 77.3928C153.385 77.4741 153.42 77.5554 153.457 77.6392C153.493 77.7206 153.528 77.802 153.565 77.8858C153.798 78.4174 154.032 78.9488 154.266 79.48C154.428 79.8486 154.591 80.2172 154.753 80.5858C154.83 80.7613 154.908 80.9367 154.985 81.1121C155.093 81.3553 155.2 81.5987 155.307 81.8421C155.338 81.913 155.37 81.9839 155.402 82.0569C155.431 82.1243 155.461 82.1917 155.492 82.2612C155.517 82.3185 155.542 82.3759 155.568 82.435C155.704 82.7654 155.826 83.1015 155.952 83.4361C154.436 83.4361 152.92 83.4361 151.358 83.4361C150.699 82.1177 150.699 82.1177 150.495 81.6233C150.448 81.5107 150.401 81.398 150.353 81.282C150.328 81.2232 150.304 81.1645 150.279 81.1039C150.142 80.7719 150.004 80.4406 149.866 80.1091C149.837 80.0385 149.807 79.9679 149.777 79.8951C149.425 79.0494 149.066 78.2068 148.707 77.3639C148.073 75.8751 147.442 74.3848 146.814 72.8938C146.362 71.8231 145.909 70.753 145.454 69.684C145.41 69.5811 145.366 69.4781 145.321 69.372C145.11 68.877 144.899 68.3821 144.688 67.8872C144.611 67.7061 144.534 67.5251 144.456 67.3439C144.401 67.2148 144.401 67.2148 144.345 67.083C144.074 66.4448 143.808 65.8041 143.549 65.1609C143.436 64.8429 143.436 64.8429 143.245 64.5721C143.21 64.6582 143.174 64.7443 143.137 64.833C142.417 66.5695 141.691 68.3037 140.954 70.0334C140.416 71.2968 139.88 72.561 139.348 73.8269C139.219 74.1331 139.09 74.4394 138.961 74.7456C138.929 74.823 138.896 74.9004 138.863 74.9802C138.254 76.4278 137.643 77.8745 137.031 79.3211C136.814 79.8358 136.596 80.3507 136.379 80.8656C136.25 81.171 136.121 81.4763 135.992 81.7815C135.933 81.9224 135.873 82.0634 135.814 82.2043C135.734 82.3956 135.653 82.5868 135.572 82.7779C135.527 82.8845 135.482 82.9911 135.435 83.101C135.328 83.3384 135.328 83.3384 135.23 83.4361C135.089 83.4452 134.948 83.4476 134.807 83.4472C134.672 83.4472 134.672 83.4472 134.534 83.4472C134.436 83.4467 134.338 83.4462 134.237 83.4457C134.138 83.4455 134.038 83.4454 133.935 83.4452C133.616 83.4447 133.296 83.4435 132.976 83.4422C132.76 83.4417 132.544 83.4413 132.328 83.4409C131.797 83.4398 131.266 83.4382 130.734 83.4361C130.801 82.9727 130.979 82.5805 131.168 82.1571C131.22 82.0403 131.22 82.0403 131.272 81.9212C131.386 81.6644 131.5 81.4079 131.614 81.1514C131.735 80.8783 131.856 80.6052 131.976 80.332C132.059 80.1446 132.142 79.9573 132.225 79.77C132.593 78.9371 132.958 78.1024 133.321 77.2672C133.916 75.8992 134.514 74.5327 135.114 73.1672C135.785 71.6427 136.45 70.1162 137.114 68.5886C137.74 67.1443 138.371 65.702 139.006 64.2609C139.533 63.0632 140.054 61.8631 140.563 60.658C140.607 60.5556 140.65 60.4533 140.695 60.3478C140.733 60.2592 140.77 60.1705 140.809 60.0792C140.943 59.7862 140.943 59.7862 141.183 59.771Z" fill="black"/>
<path d="M193.68 59.5869C195.067 59.5869 196.454 59.5869 197.883 59.5869C197.883 67.3925 197.883 75.1981 197.883 83.2403C196.496 83.2403 195.109 83.2403 193.68 83.2403C193.68 75.4347 193.68 67.6291 193.68 59.5869Z" fill="black"/>
<path d="M160.447 59.7808C161.866 59.7808 163.285 59.7808 164.747 59.7808C164.747 63.0707 164.747 66.3607 164.747 69.7504C170.198 69.7504 175.649 69.7504 181.266 69.7504C181.266 66.4604 181.266 63.1704 181.266 59.7808C182.685 59.7808 184.104 59.7808 185.566 59.7808C185.566 67.5864 185.566 75.392 185.566 83.4341C184.147 83.4341 182.728 83.4341 181.266 83.4341C181.266 80.1119 181.266 76.7897 181.266 73.3668C175.815 73.3668 170.364 73.3668 164.747 73.3668C164.747 76.689 164.747 80.0112 164.747 83.4341C163.328 83.4341 161.909 83.4341 160.447 83.4341C160.447 75.6285 160.447 67.8229 160.447 59.7808Z" fill="black"/>
</g>
<defs>
<clipPath id="clip0_513_1072">
<rect width="197" height="57" fill="white" transform="translate(31 43)"/>
</clipPath>
</defs>
</svg>
